<?xml version="1.0" standalone="no"?>
<!DOCTYPE svg PUBLIC "-//W3C//DTD SVG 20010904//EN"
 "http://www.w3.org/TR/2001/REC-SVG-20010904/DTD/svg10.dtd">
<svg version="1.0" xmlns="http://www.w3.org/2000/svg"
 width="197.000000pt" height="197.000000pt" viewBox="0 0 197.000000 197.000000"
 preserveAspectRatio="xMidYMid meet">
<metadata>
Created by potrace 1.11, written by Peter Selinger 2001-2013
</metadata>
<g transform="translate(0.000000,197.000000) scale(0.100000,-0.100000)"
fill="#000000" stroke="none">
<path d="M19 1629 c-11 -11 -19 -29 -19 -41 0 -14 75 -126 182 -273 566 -781
692 -952 710 -967 16 -15 39 -18 119 -18 86 0 102 3 119 20 22 22 22 18 22
323 l-1 187 280 0 279 0 0 -245 c0 -300 -7 -285 131 -284 74 1 94 4 109 19 17
17 18 50 18 640 0 732 14 660 -128 658 -139 -1 -131 16 -130 -280 l0 -248
-393 0 c-377 0 -394 -1 -414 -20 -20 -18 -22 -30 -22 -156 -1 -76 -2 -139 -4
-140 -1 -2 -36 43 -77 99 -41 56 -78 107 -83 112 -4 6 -102 138 -218 295 -116
157 -218 296 -229 310 -17 24 -23 25 -126 26 -92 1 -110 -2 -125 -17z"/>
<path d="M900 1630 c-17 -17 -19 -35 -18 -209 0 -229 -2 -224 116 -227 82 -3
127 8 136 33 4 9 7 99 7 200 1 229 5 221 -130 222 -77 0 -95 -3 -111 -19z"/>
<path d="M19 919 c-17 -17 -18 -40 -18 -283 1 -204 4 -269 14 -283 11 -15 30
-18 109 -20 139 -4 136 -9 137 212 1 368 2 352 -20 374 -27 27 -195 27 -222 0z"/>
</g>
</svg>
